<?xml version="1.0" standalone="no"?><!DOCTYPE svg PUBLIC "-//W3C//DTD SVG 1.1//EN" "http://www.w3.org/Graphics/SVG/1.1/DTD/svg11.dtd"><svg t="1691816351665" class="icon" viewBox="0 0 1024 1024" version="1.1" xmlns="http://www.w3.org/2000/svg" p-id="13339" xmlns:xlink="http://www.w3.org/1999/xlink" width="200" height="200"><path d="M1022.293364 470.409918a511.990827 511.990827 0 1 0-551.883445 551.883446 513.484133 513.484133 0 0 0 551.883445-551.883446zM697.392519 448.01032l-49.919106 91.73169A53.332378 53.332378 0 1 1 554.675076 489.182915l6.826544-12.373111c0-1.279977 0-2.559954-1.493306-2.559954a132.477626 132.477626 0 0 0-132.264297 132.264297v90.025053a53.332378 53.332378 0 0 1-106.664756 0v-90.025053a238.929053 238.929053 0 0 1 238.929053-238.929053 1.706636 1.706636 0 0 0 1.493306-2.346625l-6.826544-12.373111a53.332378 53.332378 0 1 1 93.864985-50.559094l49.919105 92.585008a54.825684 54.825684 0 0 1-1.066647 53.119048z" fill="#60BD98" p-id="13340"></path></svg>