<?xml version="1.0" standalone="no"?><!DOCTYPE svg PUBLIC "-//W3C//DTD SVG 1.1//EN" "http://www.w3.org/Graphics/SVG/1.1/DTD/svg11.dtd"><svg t="1694425608317" class="icon" viewBox="0 0 1024 1024" version="1.1" xmlns="http://www.w3.org/2000/svg" p-id="2360" xmlns:xlink="http://www.w3.org/1999/xlink" width="200" height="200"><path d="M753.231869 256.215511C753.393553 114.87675 638.328441 0.161953 496.208207 0.000269c-142.093287-0.161684-257.427872 114.283639-257.616503 255.622401a255.891874 255.891874 0 0 0 155.70169 235.411901C172.274317 538.866087 13.743158 734.099514 13.473684 960.025954a32.067326 32.067326 0 0 0 32.175116 31.986484 32.067326 32.067326 0 0 0 32.148168-31.986484C78.147283 729.976572 265.916299 543.797449 497.178311 544.147764a420.917341 420.917341 0 0 1 88.791462 9.593251 32.687115 32.687115 0 1 0 13.500614-63.972969 255.891874 255.891874 0 0 0 153.761482-233.552535z m-257.320083 191.945853c-106.576702 0-192.969851-85.935045-192.969851-191.945853 0-105.983861 86.393149-191.945853 192.969851-191.945852 106.576702 0 192.996799 85.961992 192.996799 191.945852 0 106.010808-86.420097 191.945853-192.996799 191.945853z m482.438102 319.918737A32.067326 32.067326 0 0 0 1010.525004 736.093617a32.067326 32.067326 0 0 0-32.175116-31.986485h-96.471452v-18.566712l118.999423-118.379634a31.986484 31.986484 0 0 0 0-45.406256 32.417642 32.417642 0 0 0-45.67573 0l-105.498808 104.932915-106.118597-104.932915a32.417642 32.417642 0 0 0-45.67573 0 31.986484 31.986484 0 0 0 0 45.406256l119.646159 118.379634v18.566712h-96.471452a32.067326 32.067326 0 0 0-32.175116 31.986485 32.067326 32.067326 0 0 0 32.148168 31.986484h96.471452v63.972968h-96.471452a32.067326 32.067326 0 0 0-32.148168 31.986485 32.067326 32.067326 0 0 0 32.148168 31.986484h96.471452v95.9864A32.067326 32.067326 0 0 0 849.730268 1023.998922a32.067326 32.067326 0 0 0 32.175116-31.986484V895.999091h96.471452A32.067326 32.067326 0 0 0 1010.525004 864.039554a32.067326 32.067326 0 0 0-32.175116-31.986485h-96.471452v-63.972968h96.471452z" fill="#1DC2DB" p-id="2361"></path></svg>