<?xml version="1.0" standalone="no"?><!DOCTYPE svg PUBLIC "-//W3C//DTD SVG 1.1//EN" "http://www.w3.org/Graphics/SVG/1.1/DTD/svg11.dtd"><svg t="1691816277969" class="icon" viewBox="0 0 1024 1024" version="1.1" xmlns="http://www.w3.org/2000/svg" p-id="5339" xmlns:xlink="http://www.w3.org/1999/xlink" width="200" height="200"><path d="M512 512m-492.307692 0a492.307692 492.307692 0 1 0 984.615384 0 492.307692 492.307692 0 1 0-984.615384 0Z" fill="#E9F5FF" opacity=".69" p-id="5340"></path><path d="M764.258462 311.138462a313.895385 313.895385 0 0 0-199.483077-100.824616H547.84a14.572308 14.572308 0 0 0-15.163077 14.572308v98.461538a15.163077 15.163077 0 0 0 15.163077 15.36 14.966154 14.966154 0 0 0 15.36-15.36V240.246154A282.387692 282.387692 0 1 1 340.283077 315.076923a14.572308 14.572308 0 0 0 0-21.267692 14.375385 14.375385 0 0 0-19.692308-1.181539 309.563077 309.563077 0 0 0-100.036923 228.233846 309.956923 309.956923 0 0 0 24.418462 121.501539 306.412308 306.412308 0 0 0 67.150769 98.461538 312.32 312.32 0 0 0 342.055385 67.15077 312.516923 312.516923 0 0 0 190.621538-287.113847 307.003077 307.003077 0 0 0-80.541538-209.723076z" fill="#5E9EFC" p-id="5341"></path><path d="M485.218462 520.861538a48.246154 48.246154 0 1 0 27.766153-42.92923l-136.073846-112.836923 112.246154 137.846153a53.76 53.76 0 0 0-3.938461 18.51077z" fill="#5E9EFC" p-id="5342"></path></svg>