<?xml version="1.0" standalone="no"?><!DOCTYPE svg PUBLIC "-//W3C//DTD SVG 1.1//EN" "http://www.w3.org/Graphics/SVG/1.1/DTD/svg11.dtd"><svg t="1691889280121" class="icon" viewBox="0 0 1024 1024" version="1.1" xmlns="http://www.w3.org/2000/svg" p-id="4618" xmlns:xlink="http://www.w3.org/1999/xlink" width="200" height="200"><path d="M796.444444 0H227.555556A227.555556 227.555556 0 0 0 0 227.555556v568.888888a227.555556 227.555556 0 0 0 227.555556 227.555556h568.888888a227.555556 227.555556 0 0 0 227.555556-227.555556V227.555556a227.555556 227.555556 0 0 0-227.555556-227.555556z m0 527.303111h-216.177777v56.888889h102.4a68.266667 68.266667 0 0 1 0 136.533333h-102.4v39.822223a68.266667 68.266667 0 0 1-136.533334 0v-39.822223H341.333333a68.266667 68.266667 0 0 1 0-136.533333h102.4v-56.888889H227.555556a68.266667 68.266667 0 0 1 0-136.533333h159.288888L307.996444 311.751111a68.266667 68.266667 0 1 1 96.711112-96.711111L512 322.616889l107.406222-107.406222a68.266667 68.266667 0 1 1 96.711111 96.711111L637.155556 390.769778h159.288888a68.266667 68.266667 0 0 1 0 136.533333z" fill="#8C7BFD" p-id="4619"></path></svg>