<?xml version="1.0" standalone="no"?><!DOCTYPE svg PUBLIC "-//W3C//DTD SVG 1.1//EN" "http://www.w3.org/Graphics/SVG/1.1/DTD/svg11.dtd"><svg t="1692340505673" class="icon" viewBox="0 0 1024 1024" version="1.1" xmlns="http://www.w3.org/2000/svg" p-id="2688" xmlns:xlink="http://www.w3.org/1999/xlink" width="200" height="200"><path d="M811.5 850.2H215c-59.8 0-108.5-48.6-108.5-108.5 0-59.8 48.7-108.5 108.5-108.5h596.5c59.8 0 108.5 48.6 108.5 108.5-0.1 59.8-48.7 108.5-108.5 108.5zM215 687.5c-29.9 0-54.2 24.3-54.2 54.2s24.3 54.2 54.2 54.2h596.5c29.9 0 54.2-24.3 54.2-54.2s-24.3-54.2-54.2-54.2H215z" fill="#D6473B" p-id="2689"></path><path d="M754.9 687.5H223.1l86.6-50.5c62.2-36.3 95-71.9 95-103.1 0-19.5-18.7-50.5-38.5-83.4-31.2-51.6-69.9-115.9-69.9-188.7 0-120.2 85.1-197.9 216.9-197.9s216.9 77.7 216.9 197.9c0 72.8-38.8 137.1-69.9 188.7-19.8 32.9-38.5 63.9-38.5 83.4 0 33.2 23.8 68.6 70.9 105.1l62.3 48.5z m-347.4-54.2H608c-27-32.4-40.6-65.7-40.6-99.4 0-34.6 21.5-70.1 46.3-111.4 29.1-48.3 62.1-103 62.1-160.7 0-129.7-113.8-143.7-162.7-143.7s-162.7 14-162.7 143.7c0 57.7 33 112.4 62.1 160.7 24.9 41.2 46.3 76.8 46.3 111.4 0.2 34.5-16.8 67.4-51.3 99.4z" fill="#D6473B" p-id="2690"></path><path d="M892.8 958.6H133.6c-15 0-27.1-12.1-27.1-27.1s12.1-27.1 27.1-27.1h759.2c15 0 27.1 12.1 27.1 27.1s-12.1 27.1-27.1 27.1z" fill="#D6473B" opacity=".498" p-id="2691"></path></svg>