<?xml version="1.0" standalone="no"?><!DOCTYPE svg PUBLIC "-//W3C//DTD SVG 1.1//EN" "http://www.w3.org/Graphics/SVG/1.1/DTD/svg11.dtd"><svg t="1691887647187" class="icon" viewBox="0 0 1024 1024" version="1.1" xmlns="http://www.w3.org/2000/svg" p-id="29348" xmlns:xlink="http://www.w3.org/1999/xlink" width="200" height="200"><path d="M389.81 860.07m-15 0a15 15 0 1 0 30 0 15 15 0 1 0-30 0Z" fill="#FEB400" p-id="29349"></path><path d="M866.58 494.13a149.88 149.88 0 0 0-80.19 19.54V485.2c0-22.91-18.45-41.55-41.13-41.55H59.53c-22.68 0-41.14 18.64-41.14 41.55v117.2a387 387 0 0 0 2.19 41.25 383.77 383.77 0 0 0 381.81 342.89A384.37 384.37 0 0 0 755.8 752.88a150.17 150.17 0 0 0 104.93 42.65c84.5 0 153-69.92 150.65-155-2.17-78.96-65.82-143.39-144.8-146.4zM706.39 602.4c0 163.11-129 296.65-290.31 303.84C241.4 914 98.39 775.19 98.39 600.34v-76.69h608z m154.47 113.13a70.76 70.76 0 1 1 70.76-70.75 70.83 70.83 0 0 1-70.76 70.75z" fill="#FEB400" p-id="29350"></path><path d="M158.7 302.22c0 63 31.15 91.06 58.64 115.85 2.54 2.29 5.14 4.64 7.78 7.06a40 40 0 0 0 54.17-58.87c-2.84-2.61-5.64-5.14-8.37-7.6-23.45-21.15-32.22-29.06-32.22-56.44 0-16.05 5.22-22.34 20.32-38.16 17.91-18.77 42.44-44.48 42.44-93.38 0-61-29.76-88.43-56-112.59-3-2.77-6.12-5.63-9.17-8.53a40 40 0 0 0-55.08 58c3.5 3.32 6.84 6.4 10.07 9.37 22 20.22 30.19 27.78 30.19 53.73 0 16-5.22 22.33-20.32 38.15-17.92 18.79-42.45 44.5-42.45 93.41zM331 302.22c0 63 31.15 91.06 58.64 115.85 2.54 2.29 5.14 4.64 7.78 7.06a40 40 0 0 0 54.17-58.87c-2.84-2.61-5.64-5.14-8.37-7.6C419.75 337.52 411 329.6 411 302.22c0-16.05 5.22-22.34 20.32-38.16 17.91-18.77 42.44-44.48 42.44-93.38 0-61-29.76-88.43-56-112.59-3-2.77-6.12-5.63-9.17-8.53a40 40 0 0 0-55.08 58c3.5 3.32 6.84 6.4 10.07 9.37 22 20.22 30.18 27.78 30.18 53.73 0 16-5.22 22.33-20.32 38.15C355.5 227.6 331 253.31 331 302.22zM503.25 302.22c0 63 31.15 91.06 58.64 115.85 2.54 2.29 5.14 4.64 7.78 7.06a40 40 0 0 0 54.17-58.87c-2.84-2.61-5.64-5.14-8.37-7.6-23.45-21.15-32.22-29.06-32.22-56.44 0-16.05 5.22-22.34 20.32-38.16 17.91-18.77 42.43-44.48 42.43-93.38 0-61-29.76-88.43-56-112.59-3-2.77-6.12-5.63-9.17-8.53a40 40 0 0 0-55.08 58c3.5 3.32 6.84 6.4 10.07 9.37 22 20.22 30.18 27.78 30.18 53.73 0 16-5.22 22.33-20.32 38.15-17.9 18.79-42.43 44.5-42.43 93.41z" fill="#889CFC" p-id="29351"></path><path d="M450 870.5a15.07 15.07 0 0 0 2.82-0.27A273.58 273.58 0 0 0 672.79 635a15 15 0 1 0-29.79-3.62 242.22 242.22 0 0 1-195.76 209.38A15 15 0 0 0 450 870.5z" fill="#FEB400" p-id="29352"></path></svg>